{"title":"42 2013 BRRIP X264 AC3-BHRG [PublicHash]","uid":8670454,"size":1899250977,"categoryP":"video","categoryS":"movies","magnet":"?xt=urn:btih:679185cf995ab5ffd083b1af5f3bc3fdefd8e591&amp;dn=42+2013+BRRIP+X264+AC3-BHRG+%5BPublicHash%5D&amp;tr=udp%3A%2F%2Ftracker.openbittorrent.com%3A80&amp;tr=udp%3A%2F%2Fopen.demonii.com%3A1337&amp;tr=udp%3A%2F%2Ftracker.coppersurfer.tk%3A6969&amp;tr=udp%3A%2F%2Fexodus.desync.com%3A6969","seeders":2,"leechers":0,"uploader":"R0thschild","files":2,"time":1373487523,"description":"              ***********************************************\n\n                PublicHash - Largest Bittorrent Community\n      \n                         &lt;a href=&quot; http://publichash.com/&quot; rel=&quot;nofollow&quot; target=&quot;_NEW&quot;&gt; http://publichash.com/&lt;/a&gt;\n\n          Crystal Clean files - Fast Speed! No Virus! No Fake! Enjoy!\n    \n              ***********************************************\n\nSUBTiTLES:\n &lt;a href=&quot;\nhttp://publichash.com/index.php?page=subtitles&amp;id=679185cf995ab5ffd083b1af5f3bc3fdefd8e591&quot; rel=&quot;nofollow&quot; target=&quot;_NEW&quot;&gt;\nhttp://publichash.com/index.php?page=subtitles&amp;id=679185cf995ab5ffd083b1af5f3bc3fdefd8e591&lt;/a&gt;\n\n128 min  -  Biography | Drama | Sport  -  12 April 2013 (USA)\nIMDB rating: 7.7\n\nThe life story of Jackie Robinson and his history-making signing with the Brooklyn Dodgers under the guidance of team executive Branch Rickey.\n\nDirector: Brian Helgeland\nWriter: Brian Helgeland\n\nFormat                                   : MPEG-4\nFormat profile                           : Base Media\nCodec ID                                 : isom\nFile size                                : 1.77 GiB\nDuration                                 : 2h 8mn\nOverall bit rate                         : 1 974 Kbps\n\n\nVideo\nID                                       : 1\nFormat                                   : AVC\nFormat/Info                              : Advanced Video Codec\nFormat profile                           : &lt;a class=&quot;__cf_email__&quot; href=&quot;/cdn-cgi/l/email-protection&quot; data-cfemail=&quot;2169484649616d120f11&quot;&gt;[email&amp;#160;protected]&lt;/a&gt;&lt;script cf-hash='f9e31' type=&quot;text/javascript&quot;&gt;\n/* &lt;![CDATA[ */!function(){try{var t=&quot;currentScript&quot;in document?document.currentScript:function(){for(var t=document.getElementsByTagName(&quot;script&quot;),e=t.length;e--;)if(t[e].getAttribute(&quot;cf-hash&quot;))return t[e]}();if(t&amp;&amp;t.previousSibling){var e,r,n,i,c=t.previousSibling,a=c.getAttribute(&quot;data-cfemail&quot;);if(a){for(e=&quot;&quot;,r=parseInt(a.substr(0,2),16),n=2;a.length-n;n+=2)i=parseInt(a.substr(n,2),16)^r,e+=String.fromCharCode(i);e=document.createTextNode(e),c.parentNode.replaceChild(e,c)}}}catch(u){}}();/* ]]&gt; */&lt;/script&gt;\nFormat settings, CABAC                   : Yes\nFormat settings, ReFrames                : 4 frames\nCodec ID                                 : avc1\nCodec ID/Info                            : Advanced Video Coding\nDuration                                 : 2h 8mn\nBit rate                                 : 1 588 Kbps\nMaximum bit rate                         : 9 631 Kbps\nWidth                                    : 720 pixels\nHeight                                   : 304 pixels\nDisplay aspect ratio                     : 2.35:1\nFrame rate mode                          : Constant\nFrame rate                               : 23.976 fps\nColor space                              : YUV\nChroma subsampling                       : 4:2:0\nBit depth                                : 8 bits\nScan type                                : Progressive\nBits/(Pixel*Frame)                       : 0.303\nStream size                              : 1.42 GiB (80%)\n\nAudio\nID                                       : 2\nFormat                                   : AC-3\nFormat/Info                              : Audio Coding 3\nMode extension                           : CM (complete main)\nFormat settings, Endianness              : Big\nCodec ID                                 : ac-3\nDuration                                 : 2h 8mn\nBit rate mode                            : Constant\nBit rate                                 : 384 Kbps\nChannel(s)                               : 6 channels\nChannel positions                        : Front: L C R, Side: L R, LFE\nSampling rate                            : 48.0 KHz\nBit depth                                : 16 bits\nCompression mode                         : Lossy\nStream size                              : 352 MiB (19%)\nLanguage                                 : English\n\nsource &gt;&gt;&gt;&gt;&gt;&gt;42.2013.1080p.BluRay.x264-SPARKS thanks.... few subs in there as well English, Portugeuse and Spanish SRT\n\nIMDB: http://www.imdb.com/title/tt0453562/","torrent":{"xt":"urn:btih:679185cf995ab5ffd083b1af5f3bc3fdefd8e591","amp;dn":"42+2013+BRRIP+X264+AC3-BHRG+%5BPublicHash%5D","amp;tr":["udp%3A%2F%2Ftracker.openbittorrent.com%3A80","udp%3A%2F%2Fopen.demonii.com%3A1337","udp%3A%2F%2Ftracker.coppersurfer.tk%3A6969","udp%3A%2F%2Fexodus.desync.com%3A6969"],"infoHash":"679185cf995ab5ffd083b1af5f3bc3fdefd8e591","infoHashBuffer":{"type":"Buffer","data":[103,145,133,207,153,90,181,255,208,131,177,175,95,59,195,253,239,216,229,145]},"announce":[],"urlList":[]}}